PathFileType	4	(X/Y/Z)	HSS_squat1.trc
DataRate	CameraRate	NumFrames	NumMarkers	Units	OrigDataRate	OrigDataStartFrame	OrigNumFrames
120.0	120.0	6	44	mm	120.0	817	1088
Frame#	Time		R.Shoulder		Offset		L.Shoulder		R.Elbow		R.Wrist.Radial		R.Wrist		R.Hand		L.Elbow		L.Wrist.Radial		L.Wrist		L.Hand		R.Hip		V.Sacral		L.PSIS		L.Hip		R.Thigh.Upper		R.Thigh.Front		R.Thigh.Rear		X.Shell.Lower.Thigh.Right		R.Knee.Lateral		R.Shank.Upper		R.Shank.Front		R.Shank.Rear		X.Shell.Lower.Shank.Right		R.Ankle.Lateral		R.Heel		R.Toe		L.Thigh.Upper		L.Thigh.Front		L.Thigh.Rear		X.Shell.Lower.Thigh.Left		L.Knee.Lateral		L.Shank.Upper		L.Shank.Front		L.Shank.Rear		X.Shell.Lower.Shank.Left		L.Ankle.Lateral		L.Heel		L.Toe		R.Troc		L.Troc		R.PSIS		L.ASIS		R.ASIS
			X1	Y1	Z1	X2	Y2	Z2	X3	Y3	Z3	X4	Y4	Z4	X5	Y5	Z5	X6	Y6	Z6	X7	Y7	Z7	X8	Y8	Z8	X9	Y9	Z9	X10	Y10	Z10	X11	Y11	Z11	X12	Y12	Z12	X13	Y13	Z13	X14	Y14	Z14	X15	Y15	Z15	X16	Y16	Z16	X17	Y17	Z17	X18	Y18	Z18	X19	Y19	Z19	X20	Y20	Z20	X21	Y21	Z21	X22	Y22	Z22	X23	Y23	Z23	X24	Y24	Z24	X25	Y25	Z25	X26	Y26	Z26	X27	Y27	Z27	X28	Y28	Z28	X29	Y29	Z29	X30	Y30	Z30	X31	Y31	Z31	X32	Y32	Z32	X33	Y33	Z33	X34	Y34	Z34	X35	Y35	Z35	X36	Y36	Z36	X37	Y37	Z37	X38	Y38	Z38	X39	Y39	Z39	X40	Y40	Z40	X41	Y41	Z41	X42	Y42	Z42	X43	Y43	Z43	X44	Y44	Z44

817	6.80000	119.88827	941.72894	-237.23837	-168.14459	909.96912	-94.93282	-190.61105	952.83270	-252.46487	211.40781	747.84003	-497.56357	46.85188	778.25134	-700.66083	104.19377	803.14618	-739.24725	30.36538	817.64734	-782.72357	-285.98599	782.28375	-526.62054	-157.83536	822.49835	-750.42065	-109.07742	781.36646	-714.91815	-77.05951	815.14685	-786.97522	103.61273	591.93829	27.85701	-45.69838	602.96912	164.59480	-83.85561	612.23975	155.43858	-197.97070	589.84857	37.49190	181.27303	528.38043	-113.26069	170.03935	555.57123	-156.62294	202.32240	503.53586	-145.81047	189.72946	525.94470	-184.75658	200.48976	441.15030	-278.84253	248.55083	326.12265	-251.85774	226.02104	274.53259	-257.48776	235.01247	307.59128	-207.35533	227.40474	261.05173	-210.07187	188.22011	72.31992	-93.04719	139.45384	35.23049	-42.86196	200.90146	34.09209	-236.48415	-248.20450	526.19202	-121.80714	-233.86804	541.39948	-175.34097	-268.64709	493.96637	-152.34778	-261.96075	516.89655	-190.33649	-249.86917	431.12259	-293.16525	-288.44806	278.68018	-213.72420	-270.88138	244.87390	-227.67763	-276.11346	257.81351	-168.05890	-277.58795	219.85172	-175.47009	-235.34280	72.52574	-108.09710	-187.35152	38.01783	-45.64833	-242.61668	32.90866	-242.03206	138.74417	554.57812	56.37437	-238.82545	541.95636	64.90813	-4.51108	611.71191	155.81514	-154.80280	556.30640	-5.06575	69.32668	559.68958	-12.26748
818	6.80833	119.95703	946.17242	-236.82985	-168.18149	914.29327	-94.54272	-190.72708	957.06812	-252.15685	211.56140	751.82361	-496.94794	46.94181	781.84650	-699.99249	104.30373	806.53735	-738.63568	30.42772	821.00500	-782.15686	-286.04559	786.01227	-526.06812	-157.79700	825.89941	-749.84253	-108.27656	785.02332	-714.27368	-77.09808	818.58472	-786.55420	103.55399	595.80341	27.41708	-45.54418	607.42047	164.16248	-83.86506	616.53064	155.11499	-197.85764	593.64111	36.94651	182.11914	530.08875	-113.47657	170.35921	557.22223	-157.28123	202.43695	505.21774	-145.95486	190.04034	527.34515	-185.12984	200.39333	441.41476	-278.61554	248.61578	326.28891	-251.57553	226.07219	274.72031	-257.22510	235.02953	307.76831	-207.11195	227.39989	261.18924	-209.76103	188.24995	72.32590	-93.05874	139.48985	35.22491	-42.83770	200.88989	34.08900	-236.47513	-247.71295	527.95282	-122.20632	-233.60599	543.01379	-175.94398	-268.39590	495.61755	-152.70392	-261.73337	518.27875	-190.75609	-249.48079	431.48282	-292.89993	-288.30145	278.86249	-213.49768	-270.74716	245.02231	-227.47882	-276.05585	257.89041	-167.90817	-277.51294	219.98140	-175.31686	-235.41083	72.51768	-108.07423	-187.44771	37.99527	-45.63894	-242.61850	32.91882	-241.99237	138.95718	558.30829	56.04510	-238.75937	545.64771	64.62710	-4.39653	616.14728	155.38478	-154.69547	559.77820	-5.59549	68.91929	562.63477	-12.23851
819	6.81667	120.03450	950.69208	-236.45821	-168.08888	918.50024	-94.17278	-190.78076	961.32831	-251.88123	211.70271	755.74164	-496.31277	47.37005	785.33813	-699.39429	104.23517	810.04541	-737.94385	30.52023	824.37817	-781.53577	-286.17352	789.76404	-525.41833	-157.82079	829.38892	-749.24420	-108.78552	788.75122	-713.44116	-76.97087	821.95490	-785.91797	103.46159	599.83881	27.10675	-45.56466	611.88110	163.89505	-83.88448	621.04852	154.60683	-197.79111	597.40216	36.40059	182.69109	531.90900	-113.76866	170.62650	558.92627	-157.75490	202.57019	506.88629	-146.13533	190.14760	528.74756	-185.41661	200.42151	441.73184	-278.34442	248.67229	326.45129	-251.15448	226.10353	274.91592	-256.96216	235.08347	307.89209	-206.87958	227.38185	261.30774	-209.50894	188.27254	72.32520	-93.02345	139.50110	35.21901	-42.82870	200.90088	34.08138	-236.46642	-247.65359	530.06750	-122.60408	-233.43903	544.59473	-176.50513	-268.22916	497.40833	-152.65858	-261.51785	519.72601	-190.98799	-249.14690	431.95193	-292.46198	-288.16992	279.01965	-213.22330	-270.62982	245.18925	-227.23001	-275.95697	257.94601	-167.71840	-277.44598	220.09131	-175.16779	-235.45712	72.53114	-108.02593	-187.55571	37.98684	-45.59024	-242.63161	32.94295	-241.95735	139.10796	562.22693	55.58944	-238.73639	549.48438	64.29859	-4.16260	620.56073	154.97548	-154.59120	563.30713	-6.12971	68.50185	565.62555	-12.20803
820	6.82500	120.05259	955.26495	-236.10179	-168.16859	922.84711	-93.88569	-190.92848	965.74493	-251.58986	212.04691	759.75079	-495.59396	47.21925	788.96503	-698.54230	104.32945	813.55756	-737.29797	30.53609	827.83221	-780.83881	-286.26218	793.62689	-525.02740	-157.75565	832.83478	-748.81769	-108.92117	791.84613	-712.75006	-76.87543	825.44031	-785.28632	103.50746	602.86102	26.78772	-45.47782	616.45667	163.41336	-83.89964	625.44482	154.20863	-197.71841	601.31696	36.09041	183.15967	534.00262	-114.00876	170.95978	560.62061	-158.44370	202.71140	508.60721	-146.19977	190.40526	530.15057	-185.78636	200.49380	442.17657	-277.88983	248.74341	326.64487	-250.78897	226.12184	275.11078	-256.59128	235.12572	307.99994	-206.51813	227.39238	261.46646	-209.15936	188.30193	72.32403	-92.99775	139.55447	35.19276	-42.80433	200.94002	34.04336	-236.47234	-247.50932	532.01477	-122.93740	-233.35445	546.17279	-176.89734	-268.03989	499.20279	-152.74872	-261.33939	521.16455	-191.37393	-248.85507	432.31076	-292.05734	-287.95200	279.19699	-212.94229	-270.50885	245.39470	-226.97948	-275.83612	258.02722	-167.50920	-277.40024	220.18526	-174.99397	-235.52776	72.54977	-107.95466	-187.67014	37.96502	-45.56061	-242.60709	32.95960	-241.91452	139.17604	565.98615	55.19195	-238.72385	553.36731	63.92995	-4.09506	625.04840	154.59006	-154.49014	566.89337	-6.66836	68.11745	568.69324	-12.20006
821	6.83333	120.15128	959.80518	-235.68108	-168.18517	927.25775	-93.55342	-191.06384	970.16040	-251.27170	212.12428	763.78284	-494.85059	47.19934	792.46637	-697.94580	104.48235	817.06116	-736.67145	30.63840	831.28387	-780.20886	-286.36765	797.37335	-524.43732	-157.70049	836.28381	-748.14941	-108.61158	795.51056	-712.14014	-76.83724	828.84393	-784.69550	103.52495	606.93115	26.50500	-45.39838	621.02484	163.05441	-83.78883	629.98859	153.66815	-197.60771	605.23975	35.49555	185.30360	536.95740	-114.39479	171.21710	562.28839	-159.01942	202.88640	510.36520	-146.37027	190.73192	531.45245	-185.97922	200.53290	442.57861	-277.46671	248.80206	326.89877	-250.35406	226.24695	275.31592	-256.23431	235.24762	308.11453	-206.07309	227.54224	261.67801	-208.77806	188.34634	72.29211	-92.95844	139.57053	35.18413	-42.78691	200.95183	34.05190	-236.45642	-247.38185	534.09747	-123.28459	-233.14433	547.83185	-177.49063	-267.86441	500.98032	-152.76021	-261.20050	522.68268	-191.65402	-248.46570	432.68375	-291.63437	-287.78534	279.37628	-212.73651	-270.42307	245.58626	-226.71509	-275.73251	258.12039	-167.29066	-277.33691	220.27974	-174.79305	-235.64171	72.55448	-107.93107	-187.79564	37.91666	-45.49327	-242.62190	32.95127	-241.91307	139.30313	569.81879	54.51556	-238.68625	557.43524	63.52525	-4.10164	629.64777	154.07242	-154.39230	570.53729	-7.21138	67.77679	571.84149	-12.22054
822	6.84167	120.25185	964.42621	-235.27771	-168.25658	931.73938	-93.18846	-191.16286	974.62531	-250.99384	212.26326	767.97772	-494.14642	47.47845	796.07281	-697.44952	104.56528	820.72363	-736.05597	30.77513	834.77167	-779.61035	-286.44519	801.24023	-523.79779	-157.69756	839.86981	-747.58893	-107.90397	799.61719	-711.28448	-76.69605	832.41632	-783.91632	103.58254	610.89160	26.05641	-45.36710	625.74164	162.77774	-83.79845	634.65643	153.30757	-197.48239	609.24408	34.92837	185.79356	538.95349	-112.04504	171.48148	564.00983	-159.54355	203.18018	512.08447	-146.30316	191.07004	532.89307	-186.23880	200.51224	443.07712	-276.99451	248.90845	327.13504	-249.87431	226.42775	275.50674	-255.94652	235.47867	308.25293	-205.62003	227.72243	261.82092	-208.41855	188.42006	72.27521	-92.89552	139.62898	35.16521	-42.77275	200.96436	34.06729	-236.45311	-247.27545	536.18213	-123.63168	-233.15970	549.48401	-178.01416	-267.71259	502.82867	-153.02142	-261.13867	524.18256	-191.91362	-248.15865	433.14081	-291.12531	-287.73352	279.53293	-212.53499	-270.40530	245.75427	-226.49451	-275.63422	258.25732	-167.00552	-277.30832	220.42999	-174.50441	-235.71805	72.55161	-107.88017	-187.91391	37.88071	-45.47071	-242.61554	32.97275	-241.90620	139.39113	573.79614	54.28944	-238.70335	561.50458	63.11616	-3.94994	634.14355	153.58777	-154.29778	574.23907	-7.75870	67.47839	575.06769	-12.26893
